<svg version="1.1" xmlns="http://www.w3.org/2000/svg" xmlns:xlink="http://www.w3.org/1999/xlink" width="122.88px" height="96.44px" viewBox="0,0,256,200.91251"><g fill="#007c17" fill-rule="nonzero" stroke="none" stroke-width="1" stroke-linecap="butt" stroke-linejoin="miter" stroke-miterlimit="10" stroke-dasharray="" stroke-dashoffset="0" font-family="none" font-weight="none" font-size="none" text-anchor="none" style="mix-blend-mode: normal"><g transform="translate(0.00007,-0.00037) scale(2.08333,2.08333)"><path d="M12,73.51c0.13333,-23.16 0.26333,-46.28667 0.39,-69.38c0.01119,-1.53264 1.10433,-2.84356 2.61,-3.13v0c8.4,-1.75 21.64,-1.31 30.63,2.14c6.33094,2.28606 11.88047,6.32681 16,11.65c4.25147,-5.06838 9.77313,-8.91628 16,-11.15c8.49,-3.24 21.37,-4.02 30.6,-2.64c1.57501,0.2135 2.7546,1.55066 2.77,3.14v0v69.66c-0.00264,0.85309 -0.34475,1.67003 -0.95079,2.27044c-0.60603,0.60041 -1.42614,0.93488 -2.27921,0.92956c-0.24917,-0.00349 -0.49725,-0.03367 -0.74,-0.09c-7.88227,-1.02266 -15.8934,-0.2745 -23.45,2.19c-5.58239,2.0808 -10.8807,4.85594 -15.77,8.26c6.87527,-2.13355 14.04174,-3.17951 21.24,-3.1c9.23695,0.14698 18.42938,1.31406 27.41,3.48v-72.9h3.21c1.77283,0 3.21,1.43717 3.21,3.21v73.89c0,1.77283 -1.43717,3.21 -3.21,3.21c-0.34028,-0.0028 -0.67791,-0.06019 -1,-0.17c-9.67385,-2.66011 -19.63939,-4.11447 -29.67,-4.33c-8.86428,-0.1118 -17.64915,1.682 -25.76,5.26c-1.11045,0.70664 -2.52955,0.70664 -3.64,0c-8.11057,-3.5789 -16.89563,-5.37274 -25.76,-5.26c-10.00796,0.2278 -19.94965,1.68882 -29.6,4.35c-0.32209,0.10981 -0.65972,0.1672 -1,0.17c-0.86001,0.00805 -1.68728,-0.32934 -2.29637,-0.93654c-0.60908,-0.6072 -0.94903,-1.43343 -0.94363,-2.29346v-73.89c0,-1.77283 1.43717,-3.21 3.21,-3.21h3.21v72.9c8.98062,-2.16594 18.17305,-3.33302 27.41,-3.48c7.71659,-0.09134 15.39361,1.11549 22.71,3.57c-4.62152,-3.73813 -9.88834,-6.59861 -15.54,-8.44c-7,-2.3 -17.68,-3.07 -25.49,-2.4c-0.85532,0.08325 -1.7083,-0.17994 -2.36801,-0.73064c-0.65971,-0.5507 -1.07107,-1.34293 -1.14199,-2.19936c-0.01009,-0.18319 -0.01009,-0.36681 0,-0.55zM73.64,64.4c-0.68731,0.51202 -1.60231,0.59941 -2.37411,0.22675c-0.77181,-0.37266 -1.27238,-1.14355 -1.29884,-2.00021c-0.02645,-0.85666 0.42561,-1.65697 1.17295,-2.07654c3.68971,-2.29072 7.65456,-4.10514 11.8,-5.4c4.20634,-1.42381 8.57298,-2.32064 13,-2.67c1.26473,-0.06904 2.34596,0.90027 2.415,2.165c0.06904,1.26473 -0.90027,2.34596 -2.165,2.415c-4.0156,0.33626 -7.97499,1.1624 -11.79,2.46c-3.77869,1.16487 -7.39424,2.80464 -10.76,4.88zM73.84,46.64c-1.06867,0.67931 -2.48569,0.36367 -3.165,-0.705c-0.67931,-1.06867 -0.36367,-2.48569 0.705,-3.165c3.68194,-2.23998 7.62471,-4.01993 11.74,-5.3c4.13877,-1.38546 8.42994,-2.26518 12.78,-2.62c1.23671,-0.02119 2.26872,0.93951 2.33599,2.17458c0.06727,1.23506 -0.85429,2.30216 -2.08599,2.41542c-3.95921,0.32848 -7.8642,1.13432 -11.63,2.4c-3.74254,1.15817 -7.32922,2.77016 -10.68,4.8zM73.9,28.94c-1.07419,0.67931 -2.49569,0.35919 -3.175,-0.715c-0.67931,-1.07419 -0.35919,-2.49569 0.715,-3.175c3.67632,-2.2296 7.61242,-3.9995 11.72,-5.27c4.1257,-1.3794 8.40371,-2.25246 12.74,-2.6c1.26473,-0.06904 2.34596,0.90027 2.415,2.165c0.06904,1.26473 -0.90027,2.34596 -2.165,2.415c-3.94521,0.3289 -7.83652,1.13134 -11.59,2.39c-3.73549,1.15568 -7.31545,2.76431 -10.66,4.79zM51.74,60.55c0.74734,0.41957 1.1994,1.21988 1.17295,2.07654c-0.02645,0.85666 -0.52703,1.62755 -1.29884,2.00021c-0.77181,0.37266 -1.6868,0.28527 -2.37411,-0.22675c-3.35321,-2.0723 -6.95514,-3.71198 -10.72,-4.88c-3.81501,-1.2976 -7.7744,-2.12374 -11.79,-2.46c-1.26473,-0.07456 -2.22956,-1.16027 -2.155,-2.425c0.07456,-1.26473 1.16027,-2.22956 2.425,-2.155c4.42702,0.34936 8.79366,1.24619 13,2.67c4.14544,1.29486 8.11029,3.10928 11.8,5.4zM51.5,42.77c1.06867,0.69036 1.37536,2.11633 0.685,3.185c-0.69036,1.06867 -2.11633,1.37536 -3.185,0.685c-3.35078,-2.02984 -6.93746,-3.64183 -10.68,-4.8c-3.7658,-1.26568 -7.67079,-2.07152 -11.63,-2.4c-1.26749,-0.0856 -2.2256,-1.18251 -2.14,-2.45c0.0856,-1.26749 1.18251,-2.2256 2.45,-2.14c4.35006,0.35482 8.64123,1.23454 12.78,2.62c4.11529,1.28007 8.05806,3.06002 11.74,5.3zM51.44,25.05c0.74932,0.41026 1.20953,1.20202 1.19513,2.05618c-0.0144,0.85416 -0.50102,1.62997 -1.26374,2.01474c-0.76272,0.38477 -1.67586,0.31511 -2.37139,-0.18092c-3.34455,-2.02569 -6.92451,-3.63432 -10.66,-4.79c-3.75348,-1.25866 -7.64479,-2.0611 -11.59,-2.39c-1.26473,-0.06904 -2.23404,-1.15027 -2.165,-2.415c0.06904,-1.26473 1.15027,-2.23404 2.415,-2.165c4.33629,0.34754 8.6143,1.2206 12.74,2.6c4.10758,1.2705 8.04368,3.0404 11.72,5.27zM104.56,7c-7.42,-0.7 -18.06,0.12 -24.73,2.65c-6.20054,2.17359 -11.51604,6.3227 -15.13,11.81v60.26c5.19681,-3.5619 10.81239,-6.47045 16.72,-8.66c7.4668,-2.39164 15.31517,-3.36505 23.14,-2.87zM58.28,81.1v-59.73c-3.36,-5.93 -8.79,-9.89 -14.93,-12.24c-7,-2.67 -17.75,-3.27 -24.56,-2.3l-0.36,63.56c7.43,-0.27 17.69,0.68 24.52,2.91c5.48783,1.77901 10.66121,4.41126 15.33,7.8z"></path></g></g></svg>