<svg version="1.1" xmlns="http://www.w3.org/2000/svg" xmlns:xlink="http://www.w3.org/1999/xlink" width="117.23px" height="122.88px" viewBox="0,0,244.22501,256"><g fill="#007c17" fill-rule="evenodd" stroke="none" stroke-width="1" stroke-linecap="butt" stroke-linejoin="miter" stroke-miterlimit="10" stroke-dasharray="" stroke-dashoffset="0" font-family="none" font-weight="none" font-size="none" text-anchor="none" style="mix-blend-mode: normal"><g transform="translate(-0.00155,-0.02805) scale(2.08333,2.08333)"><path d="M117.23,22.21c-1.33,15.31 -11.23,24.54 -27.78,27.25c0.55,-19 13.2,-24.38 27.78,-27.25zM32.06,60.45c-4.06,-2.14 -6.26,-2.51 -10.38,-0.05c-0.89194,0.53572 -2.04928,0.24694 -2.585,-0.645c-0.53572,-0.89194 -0.24694,-2.04928 0.645,-2.585c4.72,-2.78 9.24,-2.51 14,-0.06c0.8519,0.50744 1.16322,1.5893 0.71134,2.47193c-0.45189,0.88263 -1.5116,1.26255 -2.42134,0.86807zM39.83,112.8c0,0.54 0,1 0,1.58c-0.07715,2.33319 -0.41253,4.65066 -1,6.91c-0.15517,0.54509 -0.51295,1.0102 -1,1.3c-0.48849,0.28806 -1.07238,0.36735 -1.62,0.22c-0.54417,-0.157 -1.00867,-0.51431 -1.3,-1c-0.28806,-0.48849 -0.36735,-1.07238 -0.22,-1.62v0c0.50255,-1.78346 0.79783,-3.61891 0.88,-5.47v-0.62c-0.92,0.26 -1.84,0.48 -2.74,0.67c-5.47,1.25 -13.33,2.4 -18.56,-0.09c-0.98013,-0.45545 -1.87347,-1.07808 -2.64,-1.84c-0.81635,-0.81804 -1.43835,-1.80915 -1.82,-2.9c-0.38471,-1.15526 -0.53099,-2.37657 -0.43,-3.59c0.07706,-1.03784 0.26821,-2.06403 0.57,-3.06c0.32998,-1.10824 0.74798,-2.18834 1.25,-3.23c-0.24,-1.23 -0.48,-2.49 -0.62,-3.74c-0.36,-2.68 -0.61,-6.29 -0.68,-9c-0.05,-1.37 -0.06,-2.76 -0.08,-4.13v-0.38c-1.34,-0.08 -2.76,-0.12 -4.08,-0.24c-0.54645,-0.02393 -1.08755,-0.11804 -1.61,-0.28c-0.52103,-0.15246 -1.01646,-0.38164 -1.47,-0.68c-0.4181,-0.29111 -0.80365,-0.62637 -1.15,-1c-0.66697,-0.7741 -1.1309,-1.70196 -1.35,-2.7c-0.11273,-0.5088 -0.16641,-1.0289 -0.16,-1.55c0.02782,-0.84994 0.17596,-1.69164 0.44,-2.5c0.30326,-0.86692 0.70595,-1.69578 1.2,-2.47l4.57,-9.39c0.79036,-1.45826 1.43996,-2.9885 1.94,-4.57c0.4,-1.56 0.09,-5.83 0.15,-7.46c0.03822,-3.91627 0.83631,-7.78788 2.35,-11.4l-8.07,-3.5c-0.52297,-0.22438 -0.93378,-0.6496 -1.14,-1.18c-0.22008,-0.51758 -0.22008,-1.10242 0,-1.62c3.91,-8.7 20.77,-22.22 29.41,-26.55c9.98628,-5.22819 21.44782,-6.92345 32.52,-4.81l1.35,0.29c0.43,0.09 0.88,0.22 1.34,0.33c0.1776,0.04806 0.30325,0.20613 0.31,0.39v3.58c-0.00527,0.21869 -0.18131,0.39473 -0.4,0.4h-0.14l-1.62,-0.42c-0.55,-0.13 -1.11,-0.25 -1.65,-0.35c-9.96416,-1.89923 -20.27708,-0.42495 -29.31,4.19c-8.9,4.37 -17.92,11.77 -26.51,22.93c2.53,1.12 5.55,2.24 8,3.49c2.75129,0.80514 5.6615,0.90146 8.46,0.28c3.31522,-0.65951 6.58779,-1.51773 9.8,-2.57c2.43,-0.73 4.79,-1.46 7.05,-2c2.13094,-0.55118 4.3193,-0.8499 6.52,-0.89c0.13598,-0.01942 0.27402,-0.01942 0.41,0c0.13945,0.01554 0.27687,0.0457 0.41,0.09c1.11492,0.37084 1.71897,1.57446 1.35,2.69c-0.99843,2.7797 -1.52568,5.70662 -1.56,8.66c-0.02242,2.2161 0.47055,4.40707 1.44,6.4c0.96461,1.88587 2.28565,3.56688 3.89,4.95c1.78199,1.55913 3.7423,2.9018 5.84,4c0.49079,0.27613 0.85083,0.73698 1,1.28c0.17331,0.80293 -0.12826,1.6342 -0.77607,2.13924c-0.64781,0.50504 -1.52754,0.59471 -2.26393,0.23076c-2.44594,-1.29107 -4.73163,-2.86521 -6.81,-4.69c-1.95071,-1.71113 -3.55327,-3.78225 -4.72,-6.1c-1.06416,-2.19151 -1.69246,-4.56888 -1.85,-7c-0.14087,-2.7641 0.14584,-5.53338 0.85,-8.21c-1.43897,0.22898 -2.86441,0.5361 -4.27,0.92c-1.73,0.47 -3.52,1 -5.33,1.56c-3.33697,1.10048 -6.73627,2.00206 -10.18,2.7c-3.09851,0.66062 -6.30149,0.66062 -9.4,0c-1.34656,3.163 -2.05023,6.56235 -2.07,10c-0.07,2.12 0.29,6.23 -0.2,8.17c-0.55146,1.94305 -1.3337,3.81304 -2.33,5.57l-4.61,9.55l-0.1,0.16c-0.30712,0.46579 -0.55882,0.96584 -0.75,1.49c-0.1651,0.42472 -0.25641,0.87452 -0.27,1.33c-0.00368,0.19455 0.01308,0.38895 0.05,0.58c0.0336,0.16591 0.08733,0.32711 0.16,0.48c0.05811,0.11637 0.13216,0.22407 0.22,0.32v0c0.08052,0.08714 0.17116,0.16436 0.27,0.23c0.1237,0.0844 0.25826,0.15168 0.4,0.2c0.16621,0.04686 0.33742,0.07372 0.51,0.08c1.68,0 3.68,0.21 5.4,0.31h0.24h0.33c1.58,0 3.51,0.26 5.11,0.41c0.56549,0.05128 1.08896,0.32018 1.46,0.75c0.56069,0.65897 0.6694,1.59074 0.27547,2.36109c-0.39393,0.77035 -1.21298,1.22769 -2.07547,1.15891l-2.54,-0.16v0.07c0,1.24 0,2.47 0.07,3.7c0.07,1.23 0.09,2.28 0.19,3.45c4.74,2.22 7.56,-0.25 9,0.33c0.5304,0.20622 0.95562,0.61703 1.18,1.14v0c0.22555,0.51297 0.22555,1.09703 0,1.61c-0.20299,0.5348 -0.6144,0.96426 -1.14,1.19v0c-2.74215,1.2221 -5.84278,1.37196 -8.69,0.42l0.09,0.76c0.16,1.37 0.45,2.72 0.72,4.07c0.0304,0.2658 0.0304,0.5342 0,0.8c-0.03692,0.2598 -0.12898,0.5087 -0.27,0.73c-0.46128,0.90882 -0.85242,1.85156 -1.17,2.82c-0.24896,0.76935 -0.40998,1.56441 -0.48,2.37c-0.04408,0.63091 0.02708,1.26458 0.21,1.87c0.15612,0.52252 0.4416,0.99718 0.83,1.38c0.46283,0.41996 0.99374,0.75812 1.57,1c4.87,2.2 13.71,0.29 18.65,-1c4.66,-1.3 10,-3.24 13.79,-6.27c1.01444,-0.86871 1.83835,-1.93774 2.42,-3.14v0c1.66,-3.25 2.66,-7.45 4.32,-10.91c0.73124,-1.76847 1.84051,-3.35557 3.25,-4.65c0.44189,-0.35236 1.01224,-0.50131 1.57,-0.41c0.56851,0.06701 1.08502,0.36319 1.43,0.82c0.34743,0.44988 0.50062,1.01997 0.4255,1.5834c-0.07512,0.56343 -0.37234,1.07346 -0.8255,1.4166c-0.96219,0.99078 -1.71095,2.16838 -2.2,3.46c-1.53,3.43 -2.64,7.8 -4.34,11c-2.58,4.84 -7.81,7.39 -12.72,9.31c-0.39,0.16 -0.82,0.3 -1.24,0.47l-0.93,0.32zM106.65,54.05c0.23,8.55 -1.83,15.61 -6.71,23.6c-4.42,7.22 -11.14,13.89 -20.59,19.42c-0.12491,0.07329 -0.2553,0.13681 -0.39,0.19h-0.06c0,1.25333 0.04,2.49333 0.12,3.72c0.08,1.31 0.21,2.61 0.36,3.9c0.28999,2.45808 0.73082,4.89602 1.32,7.3c0.57316,2.31383 1.28443,4.59125 2.13,6.82c0.19707,0.52977 0.17548,1.11615 -0.06,1.63c-0.47801,1.05118 -1.70381,1.53354 -2.77,1.09c-0.52068,-0.23148 -0.92493,-0.66462 -1.12,-1.2c-1.82674,-4.87945 -3.06874,-9.9582 -3.7,-15.13c-0.33015,-2.73441 -0.50044,-5.48575 -0.51,-8.24c-0.01703,-2.93232 0.12652,-5.86338 0.43,-8.78c0.05449,-0.56064 0.33194,-1.07589 0.77,-1.43c0.43721,-0.35787 0.99724,-0.53018 1.56,-0.48v0c1.16561,0.13113 2.01101,1.1723 1.9,2.34c-0.06,0.69 -0.12,1.4 -0.19,2.13l-0.14,1.33c7.12881,-4.27219 13.12978,-10.19086 17.5,-17.26c4.28,-7.2 6.09,-13.35 5.87,-21c-0.0057,-0.22271 0.16748,-0.40921 0.39,-0.42h3.46c0.22644,0 0.41,0.18356 0.41,0.41v0zM68.91,66.16c0.10218,0.55298 -0.01954,1.12391 -0.33836,1.58714c-0.31882,0.46323 -0.80863,0.78081 -1.36164,0.88286c-0.55735,0.10641 -1.13408,-0.01614 -1.6,-0.34c-0.45788,-0.32275 -0.77321,-0.81007 -0.88,-1.36c-0.0965,-0.58152 -0.14001,-1.17061 -0.13,-1.76c0.02488,-0.57256 0.1189,-1.14001 0.28,-1.69c0.21593,-0.70825 0.5325,-1.38179 0.94,-2c0.41572,-0.65062 0.92829,-1.234 1.52,-1.73c0.56217,-0.48323 1.18801,-0.887 1.86,-1.2c0.67251,-0.32188 1.38574,-0.55065 2.12,-0.68c0.63209,-0.12314 1.27708,-0.16681 1.92,-0.13c0.63949,0.02653 1.27373,0.1272 1.89,0.3c1.41185,0.33619 2.71566,1.02421 3.79,2c0.82844,0.82213 1.3537,1.90084 1.49,3.06c0.12094,1.02772 0.02903,2.06933 -0.27,3.06c-0.31519,1.08926 -0.73028,2.14708 -1.24,3.16c-0.44,0.93 -1.52,3.17 -2.91,5.73c-1.39048,2.66174 -2.98877,5.20965 -4.78,7.62c-2.45,3.15 -4.89,5.29 -6.88,5c-1.99,-0.29 -3.48,-3.12 -3.84,-9.8v0c-0.06318,-0.58748 0.12167,-1.17467 0.51,-1.62v0c0.37812,-0.40297 0.89806,-0.64321 1.45,-0.67v0c0.55208,-0.00546 1.08656,0.19408 1.5,0.56c0.42028,0.38105 0.67206,0.91338 0.7,1.48v0c0.13,2.58 0.55,3.7 1.08,3.89c0.53,0.19 1.21,-0.48 2,-1.49c1.66321,-2.24905 3.15093,-4.62272 4.45,-7.1c1.3,-2.42 2.33,-4.55 2.76,-5.45c0.35311,-0.70703 0.65392,-1.43899 0.9,-2.19c0.18894,-0.51816 0.27059,-1.06932 0.24,-1.62c-0.05943,-0.30956 -0.23926,-0.58289 -0.5,-0.76c-0.47629,-0.34924 -1.01146,-0.61005 -1.58,-0.77c-0.32746,-0.08042 -0.66287,-0.12402 -1,-0.13c-0.33453,-0.01858 -0.67009,0.00156 -1,0.06c-0.36712,0.06474 -0.72372,0.17912 -1.06,0.34c-0.33382,0.16196 -0.64902,0.35979 -0.94,0.59c-0.2582,0.22699 -0.48668,0.48571 -0.68,0.77c-0.18738,0.27294 -0.32297,0.57801 -0.4,0.9c-0.07069,0.24411 -0.11099,0.49602 -0.12,0.75c-0.04441,0.2581 -0.04441,0.5219 0,0.78zM77.15,24.82c1.09,-8.74 2.56,-15.34 11.25,-21.07c6.22,4.92 9.51,7.88 11,21.17c-4.59,1.1 -8.67,6 -11.1,13.6c-2.3,-7.43 -6.06,-11.92 -11.15,-13.7zM102.55,23.82l-1.67,-7.82c2.82,-2.42 7.73,-3.74 12.55,-5c-0.00383,3.07731 -0.21431,6.15089 -0.63,9.2c-3.60577,0.60598 -7.07591,1.84507 -10.25,3.66zM74.11,23.82l1.68,-7.82c-2.83,-2.42 -7.74,-3.74 -12.56,-5c0.00383,3.07731 0.21431,6.15089 0.63,9.2c3.60577,0.60598 7.07591,1.84507 10.25,3.66zM59.3,22.21c1.34,15.31 11.21,24.54 27.79,27.25c-0.55,-19 -13.2,-24.38 -27.79,-27.25z"></path></g></g></svg>